# xmcd
#
# Track frame offsets:
#	150
#	20263
#	40504
#
# Disc length: 807 seconds
#
# Revision: 0
# Processed by: cddbd v1.5.2PL0 Copyright (c) Steve Scherf et al.
# Submitted via: EasyCDDAExtractor 16.0.6.1
#
DISCID=14032503
DTITLE=Kalafina - moonfesta～ムーンフェスタ～
DYEAR=1999
DGENRE=Hard Rock
TTITLE0=moonfesta～ムーンフェスタ～
TTITLE1=屋根の向こうに
TTITLE2=moonfesta～ムーンフェスタ～ -instrumental-
EXTD=YEAR: 1999\n
EXTT0=
EXTT1=
EXTT2=
PLAYORDER=
